<?xml version="1.0" ?><svg fill="white" height="24" viewBox="0 0 24 24" width="24" xmlns="http://www.w3.org/2000/svg"><path clip-rule="evenodd" d="M10.8389 1.62834C11.4391 0.895313 12.56 0.895311 13.1602 1.62833L14.152 2.83978C14.288 3.00586 14.5148 3.06663 14.7156 2.99079L16.1803 2.43756C17.0665 2.10281 18.0373 2.6633 18.1905 3.59819L18.4438 5.14326C18.4785 5.35506 18.6445 5.52109 18.8563 5.5558L20.4014 5.80904C21.3363 5.96226 21.8968 6.93305 21.562 7.8193L21.0088 9.28399C20.9329 9.48478 20.9937 9.71157 21.1598 9.84754L22.3712 10.8394C23.1043 11.4395 23.1043 12.5605 22.3712 13.1606L21.1598 14.1525C20.9937 14.2884 20.9329 14.5152 21.0088 14.716L21.562 16.1807C21.8968 17.067 21.3363 18.0377 20.4014 18.191L18.8563 18.4442C18.6445 18.4789 18.4785 18.6449 18.4438 18.8568L18.1905 20.4018C18.0373 21.3367 17.0665 21.8972 16.1803 21.5625L14.7156 21.0092C14.5148 20.9334 14.288 20.9942 14.152 21.1602L13.1602 22.3717C12.5601 23.1047 11.4391 23.1047 10.8389 22.3717L9.84709 21.1602C9.71113 20.9942 9.48433 20.9334 9.28355 21.0092L7.81886 21.5625C6.93261 21.8972 5.96182 21.3367 5.80859 20.4018L5.55536 18.8568C5.52064 18.6449 5.35462 18.4789 5.14281 18.4442L3.59774 18.191C2.66286 18.0377 2.10237 17.067 2.43712 16.1807L2.99034 14.716C3.06618 14.5152 3.00542 14.2884 2.83934 14.1525L1.62789 13.1606C0.89487 12.5605 0.894868 11.4395 1.62789 10.8394L2.83934 9.84754C3.00541 9.71157 3.06618 9.48478 2.99034 9.28399L2.43712 7.8193C2.10237 6.93305 2.66286 5.96226 3.59775 5.80904L5.14281 5.5558C5.35462 5.52109 5.52064 5.35506 5.55536 5.14326L5.80859 3.59819C5.96182 2.6633 6.93261 2.10282 7.81886 2.43756L9.28355 2.99079C9.48433 3.06663 9.71113 3.00586 9.84709 2.83978L10.8389 1.62834ZM12.3864 2.26182C12.1864 2.01748 11.8127 2.01748 11.6127 2.26182L10.6208 3.47327C10.2129 3.97149 9.53257 4.1538 8.9302 3.92628L7.46552 3.37305C7.1701 3.26147 6.8465 3.4483 6.79543 3.75993L6.54219 5.305C6.43805 5.94042 5.93998 6.43849 5.30455 6.54263L3.75949 6.79587C3.44786 6.84695 3.26103 7.17054 3.37261 7.46596L3.92584 8.93064C4.15336 9.53301 3.97105 10.2134 3.47283 10.6213L2.26138 11.6131C2.01704 11.8132 2.01704 12.1868 2.26138 12.3869L3.47283 13.3787C3.97105 13.7866 4.15336 14.467 3.92584 15.0694L3.37261 16.5341C3.26103 16.8295 3.44786 17.1531 3.75949 17.2041L5.30455 17.4574C5.93998 17.5615 6.43805 18.0596 6.54219 18.695L6.79543 20.2401C6.8465 20.5517 7.1701 20.7385 7.46551 20.627L8.9302 20.0737C9.53257 19.8462 10.2129 20.0285 10.6208 20.5267L11.6127 21.7382C11.8127 21.9825 12.1864 21.9825 12.3864 21.7382L13.3783 20.5267C13.7862 20.0285 14.4666 19.8462 15.0689 20.0737L16.5336 20.627C16.829 20.7385 17.1526 20.5517 17.2037 20.2401L17.4569 18.695C17.5611 18.0596 18.0592 17.5615 18.6946 17.4574L20.2396 17.2041C20.5513 17.1531 20.7381 16.8295 20.6265 16.5341L20.0733 15.0694C19.8458 14.467 20.0281 13.7866 20.5263 13.3787L21.7377 12.3869C21.9821 12.1868 21.9821 11.8132 21.7377 11.6131L20.5263 10.6213C20.0281 10.2134 19.8458 9.53301 20.0733 8.93064L20.6265 7.46596C20.7381 7.17054 20.5513 6.84695 20.2396 6.79587L18.6946 6.54263C18.0591 6.43849 17.5611 5.94042 17.4569 5.305L17.2037 3.75993C17.1526 3.4483 16.829 3.26147 16.5336 3.37305L15.0689 3.92628C14.4666 4.1538 13.7862 3.97149 13.3783 3.47327L12.3864 2.26182Z" fill="black" fill-rule="evenodd"/><path clip-rule="evenodd" d="M17.8536 8.85356L10.8536 15.8536C10.7598 15.9473 10.6326 16 10.5 16C10.3674 16 10.2403 15.9473 10.1465 15.8536L6.14648 11.8536L6.85359 11.1465L10.5 14.7929L17.1465 8.14645L17.8536 8.85356Z" fill="white" fill-rule="evenodd"/></svg>